<svg width="120" height="120" viewBox="0 0 120 120" fill="none" xmlns="http://www.w3.org/2000/svg">
  <rect width="120" height="120" rx="10" fill="url(#paint0_linear)" fill-opacity="0.1"/>
  <path d="M41 30C35.4772 30 31 34.4772 31 40V80C31 85.5228 35.4772 90 41 90H79C84.5228 90 89 85.5228 89 80V40C89 34.4772 84.5228 30 79 30H41Z" stroke="#8B5CF6" stroke-width="4" stroke-linecap="round" stroke-linejoin="round"/>
  <path d="M60 65V75" stroke="#8B5CF6" stroke-width="4" stroke-linecap="round" stroke-linejoin="round"/>
  <rect x="49" y="46" width="22" height="12" rx="2" fill="#F43F5E" fill-opacity="0.7"/>
  <path d="M42 75L54 65L66 70L78 60" stroke="#3B82F6" stroke-width="4" stroke-linecap="round" stroke-linejoin="round"/>
  <circle cx="42" cy="75" r="4" fill="#10B981" fill-opacity="0.7"/>
  <circle cx="54" cy="65" r="4" fill="#10B981" fill-opacity="0.7"/>
  <circle cx="66" cy="70" r="4" fill="#10B981" fill-opacity="0.7"/>
  <circle cx="78" cy="60" r="4" fill="#10B981" fill-opacity="0.7"/>
  <path d="M41 90L33 98M79 90L87 98" stroke="#8B5CF6" stroke-width="4" stroke-linecap="round" stroke-linejoin="round"/>
  <defs>
    <linearGradient id="paint0_linear" x1="0" y1="0" x2="120" y2="120" gradientUnits="userSpaceOnUse">
      <stop stop-color="#10B981"/>
      <stop offset="1" stop-color="#3B82F6"/>
    </linearGradient>
  </defs>
</svg> 