<svg width="120" height="120" viewBox="0 0 120 120" fill="none" xmlns="http://www.w3.org/2000/svg">
  <rect width="120" height="120" rx="10" fill="url(#paint0_linear)" fill-opacity="0.1"/>
  <path d="M90 30H30C26.6863 30 24 32.6863 24 36V84C24 87.3137 26.6863 90 30 90H90C93.3137 90 96 87.3137 96 84V36C96 32.6863 93.3137 30 90 30Z" stroke="#8B5CF6" stroke-width="4" stroke-linecap="round" stroke-linejoin="round"/>
  <path d="M24 48H96" stroke="#8B5CF6" stroke-width="4" stroke-linecap="round" stroke-linejoin="round"/>
  <path d="M45 66L36 75L45 84" stroke="#8B5CF6" stroke-width="4" stroke-linecap="round" stroke-linejoin="round"/>
  <path d="M75 66L84 75L75 84" stroke="#8B5CF6" stroke-width="4" stroke-linecap="round" stroke-linejoin="round"/>
  <path d="M54 84L66 66" stroke="#8B5CF6" stroke-width="4" stroke-linecap="round" stroke-linejoin="round"/>
  <circle cx="36" cy="39" r="3" fill="#F43F5E"/>
  <circle cx="48" cy="39" r="3" fill="#FBBF24"/>
  <circle cx="60" cy="39" r="3" fill="#10B981"/>
  <defs>
    <linearGradient id="paint0_linear" x1="0" y1="0" x2="120" y2="120" gradientUnits="userSpaceOnUse">
      <stop stop-color="#8B5CF6"/>
      <stop offset="1" stop-color="#3B82F6"/>
    </linearGradient>
  </defs>
</svg> 